<svg height="3.5rem" style="height:3.5rem;" version="1.1" id="add-to-cart-button-colors-1-sp"
	 xmlns="http://www.w3.org/2000/svg" xmlns:xlink="http://www.w3.org/1999/xlink" x="0px" y="0px" viewBox="0 0 257 59"
	 style="enable-background:new 0 0 257 59;" xml:space="preserve">
<style type="text/css">
	#add-to-cart-button-colors-1-sp .stmv0{fill:url(#SVGID_1_);}
	#add-to-cart-button-colors-1-sp .stmv1{fill:#161616;}
	#add-to-cart-button-colors-1-sp .stmv2{fill:url(#SVGID_2_);}
	#add-to-cart-button-colors-1-sp .stmv3{fill:#000000;}
	#add-to-cart-button-colors-1-sp .stmv4{fill:#FF5F00;}
	#add-to-cart-button-colors-1-sp .stmv5{fill:#EB001B;}
	#add-to-cart-button-colors-1-sp .stmv6{fill:#F79E1B;}
	#add-to-cart-button-colors-1-sp .stmv7{fill:#142688;}
</style>
<g>
	<g id="Cadenas_2_">
		<linearGradient id="SVGID_1_" gradientUnits="userSpaceOnUse" x1="69.6231" y1="58" x2="69.6231" y2="4">
			<stop  offset="0" style="stop-color:#282828"/>
			<stop  offset="1" style="stop-color:#080808"/>
		</linearGradient>
		<path class="stmv0" d="M50,35.9v17.2c0,2.7,2.2,4.9,4.9,4.9h29.5c2.7,0,4.9-2.2,4.9-4.9V35.9c0-2.7-2.2-4.9-4.9-4.9h-2.5V16.3
			C81.9,9.5,76.4,4,69.6,4S57.4,9.5,57.4,16.3V31h-2.5C52.2,31,50,33.2,50,35.9z M67.2,40.9c0-1.4,1.1-2.5,2.5-2.5
			c1.4,0,2.5,1.1,2.5,2.5v7.4c0,1.4-1.1,2.5-2.5,2.5c-1.4,0-2.5-1.1-2.5-2.5V40.9z M64.8,16.3c0-2.7,2.2-4.9,4.9-4.9
			s4.9,2.2,4.9,4.9V31h-9.9V16.3H64.8z"/>
	</g>
	<rect id="Border_2_" x="12" y="35" class="stmv1" width="30" height="2"/>
	<g id="Card_2_">
		<g>
			<g>
				<linearGradient id="SVGID_2_" gradientUnits="userSpaceOnUse" x1="1.478" y1="31.1538" x2="59.3386" y2="31.1538">
					<stop  offset="0" style="stop-color:#111111"/>
					<stop  offset="0.3101" style="stop-color:#595959"/>
					<stop  offset="0.6899" style="stop-color:#282828"/>
					<stop  offset="1" style="stop-color:#080808"/>
				</linearGradient>
				<path class="stmv2" d="M47.4,53.4v-0.5H8.1c-1.9,0-3.5-1.6-3.5-3.5V28.2h43.9c1-1.3,2.5-2.2,4.3-2.3V20H4.6v-7
					c0-1.9,1.6-3.5,3.5-3.5h48.1c0.9-1.2,2-2.2,3.1-3.1H8.1c-3.7,0-6.6,3-6.6,6.6v36.4c0,3.7,3,6.6,6.6,6.6H48
					C47.6,55.2,47.4,54.3,47.4,53.4z"/>
			</g>
		</g>
	</g>
</g>
<g class="stmv3">
	<path class="stmv3" d="M103.5,5c0.7,0.6,1,1.5,1,2.6c0,0.6-0.1,1.2-0.4,1.8s-0.7,1-1.2,1.3s-1.3,0.5-2.1,0.5h-1.7v4.1h-1.5V4.1h3
		C101.8,4.1,102.8,4.4,103.5,5z M102.1,9.4c0.3-0.2,0.6-0.5,0.7-0.8c0.1-0.3,0.2-0.6,0.2-1c0-0.5-0.2-1-0.5-1.4
		c-0.4-0.4-0.9-0.6-1.6-0.6h-1.7v4.2h1.7C101.3,9.7,101.7,9.6,102.1,9.4z"/>
	<path class="stmv3" d="M111.6,12.4h-4.3l-1.2,2.9h-1.5l4.9-11.7h0.1l4.9,11.7h-1.7L111.6,12.4z M111.1,11.1L109.5,7l-1.7,4.1H111.1z"/>
	<path class="stmv3" d="M118.1,4.1v11.2h-1.5V4.1H118.1z"/>
	<path class="stmv3" d="M128.6,4.1v1.4h-5.8V9h5.2v1.4h-5.2v3.5h6v1.5h-7.5V4.1H128.6z"/>
	<path class="stmv3" d="M142.5,3.8v11.5h-1.5V8.1l-4.1,5.8h0l-4-5.6v7h-1.5V3.8h0l5.5,7.8L142.5,3.8L142.5,3.8z"/>
	<path class="stmv3" d="M153,4.1v1.4h-5.8V9h5.2v1.4h-5.2v3.5h6v1.5h-7.5V4.1H153z"/>
	<path class="stmv3" d="M165.6,4.1v11.6h0l-8.2-8.3l0,8h-1.5V3.8h0.1l8.2,8.4l0-8.1H165.6z"/>
	<path class="stmv3" d="M175.4,4.1v1.4h-3v9.8h-1.5V5.6H168V4.1H175.4z"/>
	<path class="stmv3" d="M187.2,5.6c-0.5-0.1-0.9-0.2-1.3-0.2c-0.6,0-1.1,0.1-1.4,0.4c-0.4,0.3-0.5,0.6-0.5,1.1c0,0.5,0.2,0.8,0.6,1.1
		c0.4,0.3,1,0.6,1.8,0.9c0.6,0.2,1.1,0.4,1.5,0.7c0.4,0.2,0.7,0.6,1,1c0.3,0.4,0.4,1,0.4,1.6c0,0.6-0.1,1.1-0.4,1.6
		c-0.3,0.5-0.7,0.9-1.3,1.1s-1.2,0.4-1.9,0.4c-0.7,0-1.4-0.1-2-0.3s-1.2-0.5-1.7-0.8l0.7-1.2c0.4,0.3,0.8,0.5,1.4,0.7
		c0.5,0.2,1,0.3,1.5,0.3c0.6,0,1.1-0.2,1.6-0.5s0.7-0.8,0.7-1.4c0-0.5-0.2-0.9-0.6-1.2c-0.4-0.3-0.9-0.6-1.6-0.9
		c-0.6-0.2-1.2-0.5-1.6-0.7c-0.4-0.2-0.8-0.5-1.1-0.9c-0.3-0.4-0.4-0.9-0.4-1.5c0-0.9,0.3-1.6,0.9-2.1c0.6-0.5,1.4-0.8,2.4-0.9
		c1.2,0,2.3,0.3,3.4,0.9l-0.6,1.2C188.1,5.9,187.7,5.7,187.2,5.6z"/>
	<path class="stmv3" d="M199,4.1v1.4h-5.8V9h5.2v1.4h-5.2v3.5h6v1.5h-7.5V4.1H199z M195.8,3.4h-0.9l1.3-2.1h1.6L195.8,3.4z"/>
	<path class="stmv3" d="M208.7,15.1c-0.6,0.2-1.2,0.3-1.8,0.3c-1.1,0-2.2-0.3-3-0.8c-0.9-0.5-1.5-1.2-2-2s-0.7-1.8-0.7-2.8c0-1.1,0.2-2.1,0.7-3
		c0.5-0.9,1.1-1.6,2-2.1c0.8-0.5,1.8-0.8,2.9-0.8c0.6,0,1.2,0.1,1.8,0.2s1,0.4,1.5,0.6l-0.6,1.4c-0.9-0.6-1.7-0.9-2.6-0.9
		c-0.7,0-1.4,0.2-2,0.6c-0.6,0.4-1.1,0.9-1.5,1.6c-0.4,0.7-0.5,1.4-0.5,2.2c0,0.8,0.2,1.5,0.5,2.2s0.8,1.2,1.4,1.5s1.3,0.5,2.2,0.5
		c1,0,1.9-0.3,2.6-0.9l0.6,1.3C209.7,14.7,209.3,14.9,208.7,15.1z"/>
	<path class="stmv3" d="M214.3,12.7c0.2,0.4,0.6,0.7,1,0.9c0.4,0.2,0.9,0.3,1.4,0.3c0.5,0,1-0.1,1.4-0.3c0.4-0.2,0.7-0.5,1-0.9
		c0.2-0.4,0.4-0.9,0.4-1.3V4.1h1.5v7.3c0,0.8-0.2,1.5-0.6,2.1c-0.4,0.6-0.9,1.1-1.5,1.4c-0.6,0.3-1.4,0.5-2.1,0.5
		c-0.8,0-1.5-0.2-2.1-0.5c-0.6-0.3-1.1-0.8-1.5-1.4c-0.4-0.6-0.5-1.3-0.5-2.1V4.1h1.5v7.2C214,11.8,214.1,12.3,214.3,12.7z"/>
	<path class="stmv3" d="M230.1,15.3l-2.6-4.1c-0.1,0-0.2,0-0.4,0h-1.7v4.1h-1.5V4.1h3c0.8,0,1.4,0.1,2,0.4c0.6,0.3,1.1,0.7,1.4,1.2
		c0.3,0.5,0.5,1.1,0.5,1.9c0,0.7-0.2,1.3-0.5,1.9c-0.3,0.6-0.8,1-1.4,1.3l2.8,4.5H230.1z M228.8,9.1c0.4-0.4,0.5-0.9,0.5-1.5
		c0-0.3-0.1-0.7-0.2-1c-0.1-0.3-0.4-0.6-0.7-0.8c-0.3-0.2-0.7-0.3-1.2-0.3h-1.7v4.2h1.6C227.9,9.7,228.4,9.5,228.8,9.1z"/>
	<path class="stmv3" d="M235.6,4.1v11.2h-1.5V4.1H235.6z"/>
	<path class="stmv3" d="M243.4,5.6c-0.5-0.1-0.9-0.2-1.3-0.2c-0.6,0-1.1,0.1-1.4,0.4c-0.4,0.3-0.5,0.6-0.5,1.1c0,0.5,0.2,0.8,0.6,1.1
		c0.4,0.3,1,0.6,1.8,0.9c0.6,0.2,1.1,0.4,1.5,0.7c0.4,0.2,0.7,0.6,1,1c0.3,0.4,0.4,1,0.4,1.6c0,0.6-0.1,1.1-0.4,1.6
		c-0.3,0.5-0.7,0.9-1.3,1.1s-1.2,0.4-1.9,0.4c-0.7,0-1.4-0.1-2-0.3s-1.2-0.5-1.7-0.8l0.7-1.2c0.4,0.3,0.8,0.5,1.4,0.7
		c0.5,0.2,1,0.3,1.5,0.3c0.6,0,1.1-0.2,1.6-0.5s0.7-0.8,0.7-1.4c0-0.5-0.2-0.9-0.6-1.2c-0.4-0.3-0.9-0.6-1.6-0.9
		c-0.6-0.2-1.2-0.5-1.6-0.7c-0.4-0.2-0.8-0.5-1.1-0.9c-0.3-0.4-0.4-0.9-0.4-1.5c0-0.9,0.3-1.6,0.9-2.1c0.6-0.5,1.4-0.8,2.4-0.9
		c1.2,0,2.3,0.3,3.4,0.9l-0.6,1.2C244.2,5.9,243.8,5.7,243.4,5.6z"/>
	<path class="stmv3" d="M255.1,4.1v1.4h-5.8V9h5.2v1.4h-5.2v3.5h6v1.5h-7.5V4.1H255.1z M251.9,3.4h-0.9l1.3-2.1h1.6L251.9,3.4z"/>
</g>
<g id="Mastercard_2_">
	<path class="stmv3" d="M106.3,57.8v-2.3c0-0.9-0.5-1.4-1.4-1.4c-0.5,0-1,0.2-1.3,0.6c-0.3-0.4-0.6-0.6-1.2-0.6c-0.4,0-0.7,0.1-1.1,0.5v-0.5h-0.8
		v3.7h0.8v-2c0-0.6,0.3-1,0.9-1c0.5,0,0.8,0.3,0.8,1v2h0.8v-2c0-0.6,0.4-1,0.9-1c0.5,0,0.8,0.3,0.8,1v2H106.3L106.3,57.8z
		 M118.3,54.1H117V53h-0.8v1.1h-0.7v0.7h0.7v1.7c0,0.9,0.3,1.3,1.3,1.3c0.3,0,0.7-0.1,1-0.3l-0.2-0.7c-0.2,0.2-0.5,0.2-0.7,0.2
		c-0.4,0-0.5-0.2-0.5-0.6v-1.7h1.3L118.3,54.1L118.3,54.1L118.3,54.1z M125.2,54.1c-0.5,0-0.7,0.2-1,0.5v-0.5h-0.8v3.7h0.8v-2.1
		c0-0.6,0.3-1,0.7-1c0.2,0,0.3,0.1,0.5,0.1l0.2-0.7C125.5,54.1,125.3,54.1,125.2,54.1L125.2,54.1L125.2,54.1z M114.8,54.5
		c-0.4-0.3-0.9-0.4-1.5-0.4c-0.9,0-1.6,0.5-1.6,1.2c0,0.6,0.5,1,1.3,1.1l0.4,0.1c0.4,0.1,0.6,0.2,0.6,0.4c0,0.3-0.3,0.5-0.9,0.5
		c-0.5,0-1-0.2-1.2-0.4l-0.4,0.6c0.4,0.3,1,0.5,1.6,0.5c1.1,0,1.7-0.5,1.7-1.2c0-0.6-0.5-1-1.3-1.1l-0.4-0.1
		c-0.3-0.1-0.6-0.1-0.6-0.3c0-0.3,0.3-0.4,0.7-0.4c0.5,0,0.9,0.2,1.2,0.3L114.8,54.5L114.8,54.5z M136.3,54.1c-0.5,0-0.7,0.2-1,0.5
		v-0.5h-0.8v3.7h0.8v-2.1c0-0.6,0.3-1,0.7-1c0.2,0,0.3,0.1,0.5,0.1l0.2-0.7C136.7,54.1,136.5,54.1,136.3,54.1L136.3,54.1L136.3,54.1
		z M126,56c0,1.1,0.7,1.9,2,1.9c0.5,0,0.9-0.1,1.3-0.4l-0.4-0.6c-0.3,0.2-0.6,0.3-1,0.3c-0.6,0-1.1-0.5-1.1-1.2
		c0-0.7,0.5-1.2,1.1-1.2c0.3,0,0.6,0.1,1,0.3l0.4-0.6c-0.4-0.3-0.7-0.4-1.3-0.4C126.8,54.1,126,54.9,126,56L126,56L126,56z
		 M133.5,56v-1.9h-0.8v0.5c-0.3-0.3-0.6-0.5-1.2-0.5c-1,0-1.9,0.8-1.9,1.9c0,1.1,0.8,1.9,1.9,1.9c0.5,0,0.9-0.2,1.2-0.5v0.5h0.8V56z
		 M130.5,56c0-0.6,0.4-1.2,1.1-1.2c0.6,0,1.1,0.5,1.1,1.2c0,0.6-0.5,1.2-1.1,1.2C130.9,57.1,130.5,56.7,130.5,56L130.5,56z
		 M120.8,54.1c-1.1,0-1.9,0.7-1.9,1.9s0.7,1.9,1.9,1.9c0.5,0,1.1-0.2,1.5-0.5l-0.4-0.6c-0.3,0.2-0.7,0.4-1.1,0.4
		c-0.5,0-1-0.2-1.1-0.9h2.7V56C122.5,54.8,121.8,54.1,120.8,54.1L120.8,54.1L120.8,54.1z M120.8,54.8c0.5,0,0.9,0.3,0.9,0.9h-1.9
		C119.9,55.2,120.2,54.8,120.8,54.8L120.8,54.8z M140.9,56v-3.3h-0.8v1.9c-0.3-0.3-0.6-0.5-1.2-0.5c-1,0-1.9,0.8-1.9,1.9
		c0,1.1,0.8,1.9,1.9,1.9c0.5,0,0.9-0.2,1.2-0.5v0.5h0.8V56z M138,56c0-0.6,0.4-1.2,1.1-1.2c0.6,0,1.1,0.5,1.1,1.2
		c0,0.6-0.5,1.2-1.1,1.2C138.4,57.1,138,56.7,138,56L138,56z M110.9,56v-1.9h-0.8v0.5c-0.3-0.3-0.6-0.5-1.2-0.5
		c-1,0-1.9,0.8-1.9,1.9c0,1.1,0.8,1.9,1.9,1.9c0.5,0,0.9-0.2,1.2-0.5v0.5h0.8V56z M107.9,56c0-0.6,0.4-1.2,1.1-1.2
		c0.6,0,1.1,0.5,1.1,1.2c0,0.6-0.5,1.2-1.1,1.2C108.3,57.1,107.9,56.7,107.9,56z"/>
	<rect x="114.5" y="26" class="stmv4" width="12.2" height="21.8"/>
	<path class="stmv5" d="M115.3,37c0-4.4,2.1-8.4,5.3-10.9c-2.4-1.9-5.3-2.9-8.6-2.9c-7.7,0-13.9,6.2-13.9,13.9s6.2,13.9,13.9,13.9
		c3.3,0,6.2-1.1,8.6-2.9C117.4,45.4,115.3,41.4,115.3,37z"/>
	<path class="stmv6" d="M143,37c0,7.7-6.2,13.9-13.9,13.9c-3.3,0-6.2-1.1-8.6-2.9c3.3-2.6,5.3-6.5,5.3-10.9s-2.1-8.4-5.3-10.9
		c2.4-1.9,5.3-2.9,8.6-2.9C136.8,23,143,29.3,143,37z"/>
</g>
<path id="Visa_2_" class="stmv7" d="M187.2,23.4l-14.3,34.1h-9.3l-7-27.3c-0.4-1.7-0.8-2.3-2.2-3c-2.2-1.1-5.7-2.3-8.7-2.9l0.3-1H161
	c1.9,0,3.7,1.3,4,3.5l3.8,19.7l9.2-23.3L187.2,23.4L187.2,23.4z M223.8,46.4c0-9-12.5-9.5-12.3-13.6c0-1.3,1.1-2.5,3.8-2.9
	c1.3-0.1,4.8-0.3,8.7,1.5l1.5-7.3c-2.2-0.8-4.9-1.5-8.3-1.5c-8.7,0-14.8,4.7-15,11.3c0,4.9,4.4,7.6,7.6,9.3c3.4,1.7,4.7,2.8,4.5,4.3
	c0,2.3-2.8,3.3-5.3,3.4c-4.4,0.1-7-1.3-9-2.2l-1.7,7.4c2,1,5.9,1.8,9.8,1.8C217.6,58.1,223.6,53.5,223.8,46.4 M246.8,57.5h8.2
	l-7.1-34.1h-7.5c-1.7,0-3.2,1-3.8,2.5l-13.3,31.7h9.3l1.9-5.2h11.3L246.8,57.5z M237,45.4l4.7-12.9l2.7,12.9H237z M199.8,23.4
	l-7.3,34.1h-8.8l7.3-34.1L199.8,23.4z"/>
</svg>
