<?xml version="1.0" encoding="UTF-8"?>
<svg width="700pt" height="700pt" version="1.1" viewBox="0 0 700 700" xmlns="http://www.w3.org/2000/svg" xmlns:xlink="http://www.w3.org/1999/xlink">
 <defs>
  <symbol id="w" overflow="visible">
   <path d="m18.766-1.125c-0.96875 0.5-1.9805 0.875-3.0312 1.125-1.043 0.25781-2.1367 0.39062-3.2812 0.39062-3.3984 0-6.0898-0.94531-8.0781-2.8438-1.9922-1.9062-2.9844-4.4844-2.9844-7.7344 0-3.2578 0.99219-5.8359 2.9844-7.7344 1.9883-1.9062 4.6797-2.8594 8.0781-2.8594 1.1445 0 2.2383 0.13281 3.2812 0.39062 1.0508 0.25 2.0625 0.625 3.0312 1.125v4.2188c-0.98047-0.65625-1.9453-1.1406-2.8906-1.4531-0.94922-0.3125-1.9492-0.46875-3-0.46875-1.875 0-3.3516 0.60547-4.4219 1.8125-1.0742 1.1992-1.6094 2.8555-1.6094 4.9688 0 2.1055 0.53516 3.7617 1.6094 4.9688 1.0703 1.1992 2.5469 1.7969 4.4219 1.7969 1.0508 0 2.0508-0.14844 3-0.45312 0.94531-0.3125 1.9102-0.80078 2.8906-1.4688z"/>
  </symbol>
  <symbol id="d" overflow="visible">
   <path d="m13.734-11.141c-0.4375-0.19531-0.87109-0.34375-1.2969-0.4375-0.41797-0.10156-0.83984-0.15625-1.2656-0.15625-1.2617 0-2.2305 0.40625-2.9062 1.2188-0.67969 0.80469-1.0156 1.9531-1.0156 3.4531v7.0625h-4.8906v-15.312h4.8906v2.5156c0.625-1 1.3438-1.7266 2.1562-2.1875 0.82031-0.46875 1.8008-0.70312 2.9375-0.70312 0.16406 0 0.34375 0.011719 0.53125 0.03125 0.19531 0.011719 0.47656 0.039062 0.84375 0.078125z"/>
  </symbol>
  <symbol id="b" overflow="visible">
   <path d="m17.641-7.7031v1.4062h-11.453c0.125 1.1484 0.53906 2.0078 1.25 2.5781 0.70703 0.57422 1.7031 0.85938 2.9844 0.85938 1.0312 0 2.082-0.14844 3.1562-0.45312 1.082-0.3125 2.1914-0.77344 3.3281-1.3906v3.7656c-1.1562 0.4375-2.3125 0.76562-3.4688 0.98438-1.1562 0.22656-2.3125 0.34375-3.4688 0.34375-2.7734 0-4.9297-0.70312-6.4688-2.1094-1.5312-1.4062-2.2969-3.3789-2.2969-5.9219 0-2.5 0.75391-4.4609 2.2656-5.8906 1.5078-1.4375 3.582-2.1562 6.2188-2.1562 2.4062 0 4.332 0.73047 5.7812 2.1875 1.4453 1.4492 2.1719 3.3828 2.1719 5.7969zm-5.0312-1.625c0-0.92578-0.27344-1.6719-0.8125-2.2344-0.54297-0.57031-1.25-0.85938-2.125-0.85938-0.94922 0-1.7188 0.26562-2.3125 0.79688s-0.96484 1.2969-1.1094 2.2969z"/>
  </symbol>
  <symbol id="a" overflow="visible">
   <path d="m9.2188-6.8906c-1.0234 0-1.793 0.17188-2.3125 0.51562-0.51172 0.34375-0.76562 0.85547-0.76562 1.5312 0 0.625 0.20703 1.1172 0.625 1.4688 0.41406 0.34375 0.98828 0.51562 1.7188 0.51562 0.92578 0 1.7031-0.32812 2.3281-0.98438 0.63281-0.66406 0.95312-1.4922 0.95312-2.4844v-0.5625zm7.4688-1.8438v8.7344h-4.9219v-2.2656c-0.65625 0.92969-1.3984 1.6055-2.2188 2.0312-0.82422 0.41406-1.8242 0.625-3 0.625-1.5859 0-2.8711-0.45703-3.8594-1.375-0.99219-0.92578-1.4844-2.1289-1.4844-3.6094 0-1.7891 0.61328-3.1016 1.8438-3.9375 1.2383-0.84375 3.1797-1.2656 5.8281-1.2656h2.8906v-0.39062c0-0.76953-0.30859-1.332-0.92188-1.6875-0.61719-0.36328-1.5703-0.54688-2.8594-0.54688-1.0547 0-2.0312 0.10547-2.9375 0.3125-0.89844 0.21094-1.7305 0.52344-2.5 0.9375v-3.7344c1.0391-0.25 2.0859-0.44141 3.1406-0.57812 1.0625-0.13281 2.125-0.20312 3.1875-0.20312 2.7578 0 4.75 0.54688 5.9688 1.6406 1.2266 1.0859 1.8438 2.8555 1.8438 5.3125z"/>
  </symbol>
  <symbol id="c" overflow="visible">
   <path d="m7.7031-19.656v4.3438h5.0469v3.5h-5.0469v6.5c0 0.71094 0.14062 1.1875 0.42188 1.4375s0.83594 0.375 1.6719 0.375h2.5156v3.5h-4.1875c-1.9375 0-3.3125-0.39844-4.125-1.2031-0.80469-0.8125-1.2031-2.1797-1.2031-4.1094v-6.5h-2.4219v-3.5h2.4219v-4.3438z"/>
  </symbol>
  <symbol id="o" overflow="visible">
   <path d="m12.766-13.078v-8.2031h4.9219v21.281h-4.9219v-2.2188c-0.66797 0.90625-1.4062 1.5703-2.2188 1.9844s-1.7578 0.625-2.8281 0.625c-1.8867 0-3.4336-0.75-4.6406-2.25-1.2109-1.5-1.8125-3.4258-1.8125-5.7812 0-2.3633 0.60156-4.2969 1.8125-5.7969 1.207-1.5 2.7539-2.25 4.6406-2.25 1.0625 0 2 0.21484 2.8125 0.64062 0.82031 0.42969 1.5664 1.0859 2.2344 1.9688zm-3.2188 9.9219c1.0391 0 1.8359-0.37891 2.3906-1.1406 0.55078-0.76953 0.82812-1.8828 0.82812-3.3438 0-1.457-0.27734-2.5664-0.82812-3.3281-0.55469-0.76953-1.3516-1.1562-2.3906-1.1562-1.043 0-1.8398 0.38672-2.3906 1.1562-0.55469 0.76172-0.82812 1.8711-0.82812 3.3281 0 1.4609 0.27344 2.5742 0.82812 3.3438 0.55078 0.76172 1.3477 1.1406 2.3906 1.1406z"/>
  </symbol>
  <symbol id="n" overflow="visible">
   <path d="m10.5-3.1562c1.0508 0 1.8516-0.37891 2.4062-1.1406 0.55078-0.76953 0.82812-1.8828 0.82812-3.3438 0-1.457-0.27734-2.5664-0.82812-3.3281-0.55469-0.76953-1.3555-1.1562-2.4062-1.1562-1.0547 0-1.8594 0.38672-2.4219 1.1562-0.55469 0.77344-0.82812 1.8828-0.82812 3.3281 0 1.4492 0.27344 2.5586 0.82812 3.3281 0.5625 0.77344 1.3672 1.1562 2.4219 1.1562zm-3.25-9.9219c0.67578-0.88281 1.4219-1.5391 2.2344-1.9688 0.82031-0.42578 1.7656-0.64062 2.8281-0.64062 1.8945 0 3.4453 0.75 4.6562 2.25 1.207 1.5 1.8125 3.4336 1.8125 5.7969 0 2.3555-0.60547 4.2812-1.8125 5.7812-1.2109 1.5-2.7617 2.25-4.6562 2.25-1.0625 0-2.0078-0.21094-2.8281-0.625-0.8125-0.42578-1.5586-1.0859-2.2344-1.9844v2.2188h-4.8906v-21.281h4.8906z"/>
  </symbol>
  <symbol id="m" overflow="visible">
   <path d="m0.34375-15.312h4.8906l4.125 10.391 3.5-10.391h4.8906l-6.4375 16.766c-0.64844 1.6953-1.4023 2.8828-2.2656 3.5625-0.86719 0.6875-2 1.0312-3.4062 1.0312h-2.8438v-3.2188h1.5312c0.83203 0 1.4375-0.13672 1.8125-0.40625 0.38281-0.26172 0.67969-0.73047 0.89062-1.4062l0.14062-0.42188z"/>
  </symbol>
  <symbol id="l" overflow="visible">
   <path d="m-0.28125-20.406h5.7656l4.6406 7.2656 4.6562-7.2656h5.7656l-7.7812 11.812v8.5938h-5.2656v-8.5938z"/>
  </symbol>
  <symbol id="k" overflow="visible">
   <path d="m16.547-12.766c0.61328-0.94531 1.3477-1.6719 2.2031-2.1719 0.85156-0.5 1.7891-0.75 2.8125-0.75 1.7578 0 3.0977 0.54688 4.0156 1.6406 0.92578 1.0859 1.3906 2.6562 1.3906 4.7188v9.3281h-4.9219v-7.9844-0.35938c0.007813-0.13281 0.015625-0.32031 0.015625-0.5625 0-1.082-0.16406-1.8633-0.48438-2.3438-0.3125-0.48828-0.82422-0.73438-1.5312-0.73438-0.92969 0-1.6484 0.38672-2.1562 1.1562-0.51172 0.76172-0.77344 1.8672-0.78125 3.3125v7.5156h-4.9219v-7.9844c0-1.6953-0.14844-2.7852-0.4375-3.2656-0.29297-0.48828-0.8125-0.73438-1.5625-0.73438-0.9375 0-1.6641 0.38672-2.1719 1.1562-0.51172 0.76172-0.76562 1.8594-0.76562 3.2969v7.5312h-4.9219v-15.312h4.9219v2.2344c0.60156-0.86328 1.2891-1.5156 2.0625-1.9531 0.78125-0.4375 1.6406-0.65625 2.5781-0.65625 1.0625 0 2 0.25781 2.8125 0.76562 0.8125 0.51172 1.4258 1.2305 1.8438 2.1562z"/>
  </symbol>
  <symbol id="f" overflow="visible">
   <path d="m2.3594-15.312h4.8906v15.312h-4.8906zm0-5.9688h4.8906v4h-4.8906z"/>
  </symbol>
  <symbol id="j" overflow="visible">
   <path d="m17.75-9.3281v9.3281h-4.9219v-7.1406c0-1.3203-0.03125-2.2344-0.09375-2.7344s-0.16797-0.86719-0.3125-1.1094c-0.1875-0.3125-0.44922-0.55469-0.78125-0.73438-0.32422-0.17578-0.69531-0.26562-1.1094-0.26562-1.0234 0-1.8242 0.39844-2.4062 1.1875-0.58594 0.78125-0.875 1.8711-0.875 3.2656v7.5312h-4.8906v-15.312h4.8906v2.2344c0.73828-0.88281 1.5195-1.5391 2.3438-1.9688 0.83203-0.42578 1.75-0.64062 2.75-0.64062 1.7695 0 3.1133 0.54688 4.0312 1.6406 0.91406 1.0859 1.375 2.6562 1.375 4.7188z"/>
  </symbol>
  <symbol id="v" overflow="visible">
   <path d="m14.953-3.7188h-8.2188l-1.3125 3.7188h-5.2812l7.5625-20.406h6.2656l7.5625 20.406h-5.2812zm-6.9062-3.7812h5.5781l-2.7812-8.125z"/>
  </symbol>
  <symbol id="i" overflow="visible">
   <path d="m17.75-9.3281v9.3281h-4.9219v-7.1094c0-1.3438-0.03125-2.2656-0.09375-2.7656s-0.16797-0.86719-0.3125-1.1094c-0.1875-0.3125-0.44922-0.55469-0.78125-0.73438-0.32422-0.17578-0.69531-0.26562-1.1094-0.26562-1.0234 0-1.8242 0.39844-2.4062 1.1875-0.58594 0.78125-0.875 1.8711-0.875 3.2656v7.5312h-4.8906v-21.281h4.8906v8.2031c0.73828-0.88281 1.5195-1.5391 2.3438-1.9688 0.83203-0.42578 1.75-0.64062 2.75-0.64062 1.7695 0 3.1133 0.54688 4.0312 1.6406 0.91406 1.0859 1.375 2.6562 1.375 4.7188z"/>
  </symbol>
  <symbol id="h" overflow="visible">
   <path d="m2.3594-21.281h4.8906v21.281h-4.8906z"/>
  </symbol>
  <symbol id="g" overflow="visible">
   <path d="m2.1875-5.9688v-9.3438h4.9219v1.5312c0 0.83594-0.007813 1.875-0.015625 3.125-0.011719 1.25-0.015625 2.0859-0.015625 2.5 0 1.2422 0.03125 2.1328 0.09375 2.6719 0.070313 0.54297 0.17969 0.93359 0.32812 1.1719 0.20703 0.32422 0.47266 0.57422 0.79688 0.75 0.32031 0.16797 0.69141 0.25 1.1094 0.25 1.0195 0 1.8203-0.39062 2.4062-1.1719 0.58203-0.78125 0.875-1.8672 0.875-3.2656v-7.5625h4.8906v15.312h-4.8906v-2.2188c-0.74219 0.89844-1.5234 1.5586-2.3438 1.9844-0.82422 0.41406-1.7344 0.625-2.7344 0.625-1.7617 0-3.1055-0.53906-4.0312-1.625-0.92969-1.082-1.3906-2.6602-1.3906-4.7344z"/>
  </symbol>
  <symbol id="u" overflow="visible">
   <path d="m0.98438-15.312h4.7656l2.5625 10.547 2.5781-10.547h4.0938l2.5781 10.438 2.5781-10.438h4.75l-4.0312 15.312h-5.3438l-2.5781-10.531-2.5781 10.531h-5.3438z"/>
  </symbol>
  <symbol id="t" overflow="visible">
   <path d="m12.422-21.281v3.2188h-2.7031c-0.6875 0-1.1719 0.125-1.4531 0.375-0.27344 0.25-0.40625 0.6875-0.40625 1.3125v1.0625h4.1875v3.5h-4.1875v11.812h-4.8906v-11.812h-2.4375v-3.5h2.4375v-1.0625c0-1.6641 0.46094-2.8984 1.3906-3.7031 0.92578-0.80078 2.3672-1.2031 4.3281-1.2031z"/>
  </symbol>
  <symbol id="e" overflow="visible">
   <path d="m9.6406-12.188c-1.0859 0-1.9141 0.39062-2.4844 1.1719-0.57422 0.78125-0.85938 1.9062-0.85938 3.375s0.28516 2.5938 0.85938 3.375c0.57031 0.77344 1.3984 1.1562 2.4844 1.1562 1.0625 0 1.875-0.38281 2.4375-1.1562 0.57031-0.78125 0.85938-1.9062 0.85938-3.375s-0.28906-2.5938-0.85938-3.375c-0.5625-0.78125-1.375-1.1719-2.4375-1.1719zm0-3.5c2.6328 0 4.6914 0.71484 6.1719 2.1406 1.4766 1.418 2.2188 3.3867 2.2188 5.9062 0 2.5117-0.74219 4.4805-2.2188 5.9062-1.4805 1.418-3.5391 2.125-6.1719 2.125-2.6484 0-4.7148-0.70703-6.2031-2.125-1.4922-1.4258-2.2344-3.3945-2.2344-5.9062 0-2.5195 0.74219-4.4883 2.2344-5.9062 1.4883-1.4258 3.5547-2.1406 6.2031-2.1406z"/>
  </symbol>
  <symbol id="s" overflow="visible">
   <path d="m2.5781-20.406h5.875l7.4219 14v-14h4.9844v20.406h-5.875l-7.4219-14v14h-4.9844z"/>
  </symbol>
  <symbol id="r" overflow="visible">
   <path d="m2.5781-20.406h8.7344c2.5938 0 4.582 0.57812 5.9688 1.7344 1.3945 1.1484 2.0938 2.7891 2.0938 4.9219 0 2.1367-0.69922 3.7812-2.0938 4.9375-1.3867 1.1562-3.375 1.7344-5.9688 1.7344h-3.4844v7.0781h-5.25zm5.25 3.8125v5.7031h2.9219c1.0195 0 1.8047-0.25 2.3594-0.75 0.5625-0.5 0.84375-1.2031 0.84375-2.1094 0-0.91406-0.28125-1.6172-0.84375-2.1094-0.55469-0.48828-1.3398-0.73438-2.3594-0.73438z"/>
  </symbol>
  <symbol id="q" overflow="visible">
   <path d="m2.3594-15.312h4.8906v15.031c0 2.0508-0.49609 3.6172-1.4844 4.7031-0.98047 1.082-2.4062 1.625-4.2812 1.625h-2.4219v-3.2188h0.85938c0.92578 0 1.5625-0.21094 1.9062-0.625 0.35156-0.41797 0.53125-1.2461 0.53125-2.4844zm0-5.9688h4.8906v4h-4.8906z"/>
  </symbol>
  <symbol id="p" overflow="visible">
   <path d="m14.719-14.828v3.9844c-0.65625-0.45703-1.3242-0.79688-2-1.0156-0.66797-0.21875-1.3594-0.32812-2.0781-0.32812-1.3672 0-2.4336 0.40234-3.2031 1.2031-0.76172 0.79297-1.1406 1.9062-1.1406 3.3438 0 1.4297 0.37891 2.543 1.1406 3.3438 0.76953 0.79297 1.8359 1.1875 3.2031 1.1875 0.75781 0 1.4844-0.10938 2.1719-0.32812 0.6875-0.22656 1.3203-0.56641 1.9062-1.0156v4c-0.76172 0.28125-1.5391 0.48828-2.3281 0.625-0.78125 0.14453-1.5742 0.21875-2.375 0.21875-2.7617 0-4.9219-0.70703-6.4844-2.125-1.5547-1.4141-2.3281-3.3828-2.3281-5.9062 0-2.5312 0.77344-4.5039 2.3281-5.9219 1.5625-1.4141 3.7227-2.125 6.4844-2.125 0.80078 0 1.5938 0.074219 2.375 0.21875 0.78125 0.13672 1.5547 0.35156 2.3281 0.64062z"/>
  </symbol>
 </defs>
 <g>
  <path d="m515.29 81.621c0.69531 0.79688 1.7031 1.25 2.7539 1.25 1.0625 0 2.0625-0.45312 2.7656-1.25l25.48-25.691c0.96484-1.0938 1.1992-2.6367 0.60547-3.9648-0.60547-1.3164-1.9258-2.168-3.375-2.168h-9.1328l-0.003906-18.113c0.007813-2.0391-1.6328-3.6836-3.6719-3.6836h-25.328c-2.0391 0-3.6836 1.6445-3.6836 3.6836v18.109h-9.1289c-1.4492 0-2.7734 0.85156-3.3672 2.168-0.59766 1.3281-0.35156 2.8711 0.60547 3.9648z"/>
  <path d="m392.98 256.95c-10.535-11.742-20.938-24.863-30.309-36.668-4.418-5.5781-8.6445-10.898-12.602-15.73l-0.29297-0.35156c5.7891-16.492 9.1016-29.988 9.8398-40.125 1.875-25.82-1.0078-42.453-8.8086-50.836-5.2695-5.6719-13.184-7.6484-20.625-5.1445-5.332 1.7852-12.551 6.5742-16.676 19.219-6.1484 18.848-3.168 52.23 14.312 79.84-7.8008 20.43-18.676 43.902-30.688 66.254-22.875 8.0195-41.109 18.562-54.195 31.355-17.098 16.688-24.047 33.254-19.074 45.438 3.0625 7.5469 10.148 12.051 18.945 12.051 6.125 0 12.75-2.2109 19.164-6.3906 16.191-10.586 37.328-45.848 48.668-66.281 23.457-7.3242 46.621-10.32 58.391-11.457 5.3242-0.51563 10.613-0.92578 15.703-1.2109 20.602 21.758 37.453 33.23 52.977 36.094 3.125 0.58203 6.25 0.875 9.3008 0.875 12.652 0 23.105-5.0469 27.984-13.496 3.6797-6.3828 3.6055-13.832-0.20703-20.441-8.6133-14.914-34.609-23.121-73.199-23.121-2.7734 0-5.6406 0.039063-8.6094 0.12891zm-141.75 82.5c-3.0625 2-6.2109 3.1914-8.4297 3.1914-0.42188 0-0.70703-0.042969-0.86719-0.085938-0.38672-1.9531 1.0039-10.406 14.695-23.781 6.4297-6.2812 14.559-12.02 24.188-17.09-12.148 19.543-23.078 33.516-29.586 37.766zm80.902-206.05c1.4297-4.375 3.1992-6.3516 4.3008-6.7188 0.027344-0.003906 0.050782-0.015625 0.074219-0.023437 1.0625 1.1992 5.5898 8.0469 3.5625 36.012-0.35156 4.8789-1.5391 11.043-3.5391 18.367-6.543-16.84-8.3398-35.555-4.3984-47.637zm35.008 125.22c-10.426 1.0039-26.309 3.0703-44.027 7.2617 6.8711-13.719 13.234-27.625 18.547-40.512 1.8438 2.3086 3.7305 4.6758 5.6445 7.1016 6.4102 8.082 13.613 17.164 21.078 26.035zm90.656 31.125c0.29297 0.50391 0.28516 0.70703 0.21094 0.83984-0.82422 1.4297-4.5469 3.6953-11.027 3.6953-1.8086 0-3.7344-0.18359-5.7227-0.55469-8.0859-1.4961-17.516-7.0859-28.758-17.051 30.504 1.457 42.828 8.8086 45.297 13.07z"/>
  <path d="m434.52 28h-253.57c-15.539 0-28.168 12.594-28.168 28.172v447.65c0 15.562 12.629 28.172 28.168 28.172h338.09c15.574 0 28.168-12.609 28.168-28.172v-363.13zm0 39.832 72.863 72.863h-72.863zm84.527 436h-338.09v-447.66h225.39v84.52c0 15.562 12.602 28.172 28.168 28.172h84.527v334.96z"/>
  <path d="m303.45 388.39c-2.3008-2.0312-5.0625-3.5117-8.1992-4.3789-3.0977-0.88672-7.5312-1.332-13.184-1.332h-18.754c-3.5664 0-6.2539 0.81641-7.9961 2.4453-1.7578 1.6445-2.6602 4.3125-2.6602 7.9141v55.621c0 3.2383 0.80078 5.7578 2.3789 7.5039 1.6055 1.793 3.7461 2.7031 6.3555 2.7031 2.4961 0 4.6016-0.91406 6.25-2.7148 1.6133-1.7695 2.4375-4.3242 2.4375-7.5898v-19.023h11.988c9.2578 0 16.367-2.0234 21.125-6.0156 4.8398-4.043 7.2969-10.023 7.2969-17.781 0-3.6133-0.59375-6.9141-1.7734-9.8281-1.1875-2.9453-2.957-5.4727-5.2656-7.5234zm-12.117 23.258c-1.0469 1.4102-2.543 2.4023-4.582 3.0391-2.168 0.67188-4.9297 1.0195-8.2227 1.0195h-8.4414v-19.254h8.4453c7.6094 0 10.695 1.5195 11.922 2.7539 1.6367 1.7461 2.4297 3.9805 2.4297 6.8203 0 2.3438-0.52344 4.2344-1.5508 5.6211z"/>
  <path d="m372.73 389.56c-3.0391-2.6602-6.4805-4.5039-10.219-5.4727-3.6406-0.94141-8.0547-1.4219-13.098-1.4219h-19.047c-3.5234 0-6.1562 0.84375-7.8281 2.5273-1.6758 1.6797-2.5273 4.3125-2.5273 7.8281v52.91c0 2.4805 0.21875 4.4688 0.66797 6.0664 0.50781 1.8125 1.6055 3.2305 3.2578 4.2109 1.5742 0.95312 3.7812 1.4102 6.7266 1.4102h19.047c3.3711 0 6.4531-0.21875 9.1562-0.65625 2.7539-0.44922 5.3711-1.2305 7.7656-2.3242 2.418-1.1016 4.6719-2.5938 6.7148-4.4297 2.5586-2.3516 4.6914-5.0586 6.3398-8.0547 1.6289-2.9844 2.8555-6.3711 3.6289-10.059 0.77344-3.6523 1.1641-7.7461 1.1641-12.152-0.007813-13.48-3.9648-23.707-11.75-30.383zm-12.73 50.609c-0.94531 0.82422-2.082 1.4844-3.3828 1.9492-1.3594 0.48047-2.6836 0.78906-3.9414 0.90625-1.3281 0.125-3.2031 0.19141-5.5781 0.19141h-9.6758v-46.18h8.25c4.3164 0 8.0195 0.46875 11.008 1.3945 2.793 0.85156 5.2031 2.918 7.1562 6.1562 2.0039 3.3086 3.0234 8.4453 3.0234 15.27 0.003906 9.6289-2.3008 16.453-6.8594 20.312z"/>
  <path d="m439.04 382.68h-34.453c-2.2969 0-4.1562 0.33984-5.6797 1.043-1.6289 0.73828-2.8438 1.9414-3.6172 3.5859-0.71875 1.5352-1.0625 3.4102-1.0625 5.7344v55.52c0 3.3438 0.81641 5.9141 2.4141 7.6367 1.6289 1.7695 3.7578 2.6719 6.3242 2.6719 2.5156 0 4.625-0.88672 6.2734-2.6367 1.6016-1.7305 2.4141-4.3125 2.4141-7.6719v-22.371h22.668c2.5352 0 4.5234-0.60938 5.8984-1.8242 1.4297-1.2617 2.1523-2.9531 2.1523-5.0352 0-2.0781-0.70703-3.7734-2.1055-5.0391-1.3594-1.2422-3.3594-1.8711-5.9414-1.8711h-22.668v-15.656h27.395c2.6836 0 4.75-0.64453 6.1445-1.9219 1.4297-1.3008 2.1523-3.0312 2.1523-5.1406 0-2.0664-0.72266-3.7812-2.1562-5.1016-1.4219-1.2852-3.4805-1.9219-6.1523-1.9219z"/>
  <use x="70" y="644" xlink:href="#w"/>
  <use x="90.550781" y="644" xlink:href="#d"/>
  <use x="104.359375" y="644" xlink:href="#b"/>
  <use x="123.347656" y="644" xlink:href="#a"/>
  <use x="142.242188" y="644" xlink:href="#c"/>
  <use x="155.628906" y="644" xlink:href="#b"/>
  <use x="174.617188" y="644" xlink:href="#o"/>
  <use x="204.410156" y="644" xlink:href="#n"/>
  <use x="224.453125" y="644" xlink:href="#m"/>
  <use x="252.453125" y="644" xlink:href="#l"/>
  <use x="272.726562" y="644" xlink:href="#a"/>
  <use x="291.621094" y="644" xlink:href="#k"/>
  <use x="320.796875" y="644" xlink:href="#f"/>
  <use x="330.394531" y="644" xlink:href="#j"/>
  <use x="350.328125" y="644" xlink:href="#f"/>
  <use x="369.671875" y="644" xlink:href="#v"/>
  <use x="391.34375" y="644" xlink:href="#i"/>
  <use x="411.277344" y="644" xlink:href="#h"/>
  <use x="420.875" y="644" xlink:href="#g"/>
  <use x="440.808594" y="644" xlink:href="#u"/>
  <use x="466.675781" y="644" xlink:href="#a"/>
  <use x="485.570312" y="644" xlink:href="#h"/>
  <use x="495.167969" y="644" xlink:href="#f"/>
  <use x="504.765625" y="644" xlink:href="#a"/>
  <use x="70" y="672" xlink:href="#t"/>
  <use x="82.183594" y="672" xlink:href="#d"/>
  <use x="95.992188" y="672" xlink:href="#e"/>
  <use x="115.226562" y="672" xlink:href="#k"/>
  <use x="154.152344" y="672" xlink:href="#c"/>
  <use x="167.535156" y="672" xlink:href="#i"/>
  <use x="187.46875" y="672" xlink:href="#b"/>
  <use x="216.207031" y="672" xlink:href="#s"/>
  <use x="239.640625" y="672" xlink:href="#e"/>
  <use x="258.878906" y="672" xlink:href="#g"/>
  <use x="278.8125" y="672" xlink:href="#j"/>
  <use x="308.492188" y="672" xlink:href="#r"/>
  <use x="329.015625" y="672" xlink:href="#d"/>
  <use x="342.820312" y="672" xlink:href="#e"/>
  <use x="362.058594" y="672" xlink:href="#q"/>
  <use x="371.65625" y="672" xlink:href="#b"/>
  <use x="390.648438" y="672" xlink:href="#p"/>
  <use x="407.242188" y="672" xlink:href="#c"/>
 </g>
</svg>
