<svg xmlns="http://www.w3.org/2000/svg" xmlns:xlink="http://www.w3.org/1999/xlink" width="111.196" height="30.566" viewBox="0 0 111.196 30.566">
<defs><style>.cls-1{fill:#173657;stroke:#143656;stroke-miterlimit:10;}.cls-2{fill:url(#Dégradé_sans_nom_2);}</style><linearGradient id="Dégradé_sans_nom_2" x1="107.51" y1="33.79" x2="76.71" y2="-0.86" gradientUnits="userSpaceOnUse"><stop offset="0" stop-color="#0788b5"/><stop offset="0.15" stop-color="#0883a7"/><stop offset="0.44" stop-color="#0a7681"/><stop offset="0.84" stop-color="#0d6044"/><stop offset="1" stop-color="#0e5729"/></linearGradient></defs><path class="cls-1" d="M10.58,5.65c-.17.37-.34.74-.5,1.11s-.33.74-.5,1.1a7.8,7.8,0,0,0-.45-.64,5.52,5.52,0,0,0-.63-.65,3.93,3.93,0,0,0-.79-.5,2.24,2.24,0,0,0-.92-.2A1.94,1.94,0,0,0,5,7.09,6.44,6.44,0,0,0,4.36,10a5.31,5.31,0,0,0,.2,1.55,3.45,3.45,0,0,0,.54,1.05,3.6,3.6,0,0,0,.74.72,9.64,9.64,0,0,0,.86.55c.47.3,1,.65,1.51,1.05a7.65,7.65,0,0,1,1.5,1.55,8.31,8.31,0,0,1,1.15,2.31A10.26,10.26,0,0,1,11.32,22,11.86,11.86,0,0,1,11,25a7.5,7.5,0,0,1-1,2.27A4.42,4.42,0,0,1,8.6,28.73a3.23,3.23,0,0,1-1.71.5,3.44,3.44,0,0,1-1.57-.39,5.65,5.65,0,0,1-1.4-1A8.15,8.15,0,0,1,2.78,26.5,6.4,6.4,0,0,1,2,25l1.11-1.91a11.25,11.25,0,0,0,.66,1.08,7.34,7.34,0,0,0,.83,1.06,3.79,3.79,0,0,0,1,.77,2.25,2.25,0,0,0,2.21,0,2.86,2.86,0,0,0,.9-.81,4.45,4.45,0,0,0,.63-1.35A6.67,6.67,0,0,0,9.55,22a5.82,5.82,0,0,0-.41-2.4,5.11,5.11,0,0,0-1-1.53,5.94,5.94,0,0,0-1.27-1c-.44-.25-.82-.48-1.15-.7s-.56-.41-.91-.7a5.16,5.16,0,0,1-1-1.2A7.48,7.48,0,0,1,3,12.61,9.81,9.81,0,0,1,2.6,9.86a12.55,12.55,0,0,1,.19-2.44,8,8,0,0,1,.7-2.21,4.58,4.58,0,0,1,1.3-1.63,3.18,3.18,0,0,1,2-.62,3.63,3.63,0,0,1,1.76.51A7.14,7.14,0,0,1,10.58,5.65Z"/><path class="cls-1" d="M21.92,21.48,19,23.19c-1,.58-1.91,1.15-2.88,1.72A3,3,0,0,0,17,26.06a1.84,1.84,0,0,0,1.18.43,1.87,1.87,0,0,0,1.62-1.1l1.09,2.06a4.55,4.55,0,0,1-1.22,1.34,2.59,2.59,0,0,1-1.49.48,2.89,2.89,0,0,1-1.67-.54,4.73,4.73,0,0,1-1.35-1.45,8.23,8.23,0,0,1-.9-2.15,10,10,0,0,1-.33-2.62,10.09,10.09,0,0,1,.33-2.61,7.75,7.75,0,0,1,.9-2.14,4.69,4.69,0,0,1,1.35-1.44,2.88,2.88,0,0,1,1.67-.53,2.16,2.16,0,0,1,1.27.43,4.14,4.14,0,0,1,1.08,1.18,8.38,8.38,0,0,1,.84,1.8A12.67,12.67,0,0,1,21.92,21.48Zm-3.75-2.92a1.93,1.93,0,0,0-1.47.69A4,4,0,0,0,15.83,21a9.34,9.34,0,0,0-.15,1.2c.67-.38,1.33-.78,2-1.18l2-1.18a3.55,3.55,0,0,0-.67-.95A1.16,1.16,0,0,0,18.17,18.56Z"/><path class="cls-1" d="M25.9,29H24.13V3.23H25.9Z"/><path class="cls-1" d="M30.17,29H28.41V3.23h1.76Z"/><path class="cls-1" d="M32.58,23.91V21.14h3.91v2.77Z"/><path class="cls-1" d="M38.45,18.56V15.79h1.36V11.22a12.82,12.82,0,0,1,.4-3.39,8.39,8.39,0,0,1,1.07-2.49A4.68,4.68,0,0,1,44.94,3.2V5.91a3.19,3.19,0,0,0-2.41,1.51,6.84,6.84,0,0,0-1,3.91v4.46h2.49v2.77H41.58V29H39.81V18.56Z"/><path class="cls-1" d="M46.15,11.12a2.37,2.37,0,0,1,.34-1.3,1,1,0,0,1,.77-.52,1,1,0,0,1,.75.52,2.37,2.37,0,0,1,.34,1.3A2.29,2.29,0,0,1,48,12.41a1,1,0,0,1-.75.5,1,1,0,0,1-.77-.5A2.29,2.29,0,0,1,46.15,11.12Zm2,17.84H46.35V16.1h1.76Z"/><path class="cls-1" d="M55.9,18.6a2.41,2.41,0,0,0-2.08,1.16A5.15,5.15,0,0,0,53,22.71V29H51.26V16.1h1.56v.3c0,.55,0,1.05.07,1.5s0,.94.07,1.49a7.12,7.12,0,0,1,.65-1.53,7,7,0,0,1,.83-1.13,3.92,3.92,0,0,1,.85-.7,1.55,1.55,0,0,1,.74-.24Z"/><path class="cls-1" d="M62.2,17.23c-.16.36-.32.72-.49,1.06s-.33.7-.49,1.06a3.78,3.78,0,0,0-.41-.48,1.14,1.14,0,0,0-.82-.31.74.74,0,0,0-.68.33,1.32,1.32,0,0,0-.17.87,1,1,0,0,0,.31.67,4.84,4.84,0,0,0,.65.5c.25.16.52.34.8.55a3.83,3.83,0,0,1,.79.77,4,4,0,0,1,.6,1.17,5.87,5.87,0,0,1,.23,1.76,7,7,0,0,1-.12,1.17A5.45,5.45,0,0,1,62,27.69a3.23,3.23,0,0,1-.83,1.1,2.14,2.14,0,0,1-1.39.44,2.91,2.91,0,0,1-1.51-.43,3.18,3.18,0,0,1-1.15-1.18q.28-.51.54-1.05c.17-.35.34-.7.53-1a5.42,5.42,0,0,0,.79.7,1.38,1.38,0,0,0,.83.22H60a.77.77,0,0,0,.31-.14,1,1,0,0,0,.31-.36,1.6,1.6,0,0,0,.16-.72,1.49,1.49,0,0,0-.21-.94,2,2,0,0,0-.61-.55c-.25-.15-.52-.3-.82-.45a3.19,3.19,0,0,1-.84-.62,2.94,2.94,0,0,1-.65-1.11,5.92,5.92,0,0,1-.25-1.92,5.44,5.44,0,0,1,.25-1.79,4,4,0,0,1,.64-1.18,2.43,2.43,0,0,1,.83-.67,2.08,2.08,0,0,1,.81-.2,2.2,2.2,0,0,1,.52.07,2,2,0,0,1,.63.24,3.44,3.44,0,0,1,.63.44A2.76,2.76,0,0,1,62.2,17.23Z"/><path class="cls-1" d="M65.88,2.88h1.77v8.06h2.08v2.78H67.65l-.08,15.51H65.8l.08-15.51H64.09V10.94h1.79Z"/><path class="cls-2" d="M110,2.31H88v2.5h-.5V2.31H73.39V8.93s2.77,1.68,2.69,6.83a8.68,8.68,0,0,1-2.69,6.4v7.53H87.5V26.81H88v2.88h22V23.41s-3.18-6-3.18-7.84S110,9,110,9ZM85.39,27.08H79.64v-.33h5.75Zm0-.75H79.64v-.64h5.75Zm0-1.06H79.64V23.85h5.75Zm0-1.9H79.64v-.56h5.75Zm0-1H79.64v-.47h5.75Zm0-.93H79.64v-.33h5.75Zm0-.81H79.64v-.79h5.75Zm0-1.12H79.64V18.43h5.75Zm0-1.45H79.64v-.4h5.75Zm0-.93H79.64v-.79h5.75Zm0-1.16H79.64v-.48h5.75Zm0-.83H79.64v-1h5.75Zm0-1.38H79.64v-.64h5.75Zm0-1H79.64v-.24h5.75Zm0-.58H79.64v-.56h5.75Zm0-.9H79.64v-.48h5.75Zm0-1.07H79.64V9.47h5.75Zm0-1.33H79.64v-.4h5.75Zm0-.94H79.64V7.43h5.75Zm0-1.1H79.64V6.41h5.75Zm0-.72H79.64V5.79h5.75ZM88,24.81h-.5v-3H88Zm0-5h-.5v-3H88Zm0-5h-.5v-3H88Zm0-5h-.5v-3H88Z"/></svg>
